<svg xmlns="http://www.w3.org/2000/svg" xmlns:xlink="http://www.w3.org/1999/xlink" width="500" zoomAndPan="magnify" viewBox="0 0 375 374.999991" height="500" preserveAspectRatio="xMidYMid meet" version="1.0"><path fill="#fc5530" d="M 148.652344 302.246094 L 137.714844 300.460938 C 130.640625 299.316406 123.777344 296.886719 117.917969 292.816406 C 100.335938 280.667969 93.332031 259.585938 98.621094 240.503906 L 118.632812 166.898438 C 91.402344 169.257812 66.316406 150.535156 61.457031 123.09375 L 56.238281 93.222656 L 72.175781 90.433594 L 77.394531 120.304688 C 81.109375 141.316406 102.050781 155.179688 123.277344 149.535156 L 146.578125 63.996094 C 147.863281 59.136719 143.71875 54.632812 138.789062 55.492188 C 109.414062 60.921875 31.011719 74.5 31.011719 74.5 C 16 77.070312 5.351562 90.722656 6.425781 105.941406 L 19.859375 297.675781 C 21.21875 317.539062 39.445312 331.832031 59.097656 328.402344 L 148.578125 312.753906 C 154.582031 311.75 154.582031 303.175781 148.652344 302.246094 Z M 148.652344 302.246094 " fill-opacity="1" fill-rule="nonzero"/><path fill="#ffb42e" d="M 343.980469 61.707031 L 196.609375 37.269531 C 184.457031 35.265625 172.664062 40.984375 166.519531 50.988281 C 164.945312 53.347656 163.800781 55.992188 163.015625 58.847656 L 158.441406 75.429688 L 150.007812 106.371094 L 141.21875 138.671875 L 134.570312 162.824219 L 116.488281 229.214844 C 113.914062 238.503906 112.34375 244.21875 112.34375 244.21875 C 107.054688 263.445312 119.632812 282.882812 139.214844 286.167969 L 222.335938 299.960938 L 318.035156 315.753906 C 337.617188 319.039062 355.773438 304.535156 356.988281 284.738281 L 368.78125 92.9375 C 369.78125 77.714844 359.058594 64.207031 343.980469 61.707031 Z M 314.035156 110.515625 C 309.246094 139.316406 281.800781 158.96875 252.925781 154.179688 C 245.992188 152.964844 239.488281 150.535156 233.773438 147.03125 C 215.976562 136.097656 205.542969 115.019531 209.113281 93.152344 L 212.617188 72.140625 L 214.117188 63.28125 L 230.128906 65.925781 L 225.195312 95.796875 C 221.90625 115.804688 235.558594 134.8125 255.640625 138.101562 C 275.726562 141.457031 294.738281 127.808594 298.023438 107.800781 L 302.957031 77.929688 L 319.035156 80.574219 Z M 314.035156 110.515625 " fill-opacity="1" fill-rule="nonzero"/><path fill="#fc5530" d="M 319.609375 329.117188 L 298.882812 325.6875 C 295.953125 325.1875 293.164062 327.1875 292.734375 330.117188 C 292.234375 333.046875 294.234375 335.761719 297.167969 336.261719 L 317.894531 339.691406 C 318.109375 339.765625 318.320312 339.765625 318.535156 339.765625 C 321.179688 339.90625 323.609375 337.976562 324.039062 335.261719 C 324.539062 332.402344 322.539062 329.617188 319.609375 329.117188 Z M 319.609375 329.117188 " fill-opacity="1" fill-rule="nonzero"/><path fill="#fc5530" d="M 278.796875 322.398438 L 172.664062 304.75 C 169.804688 304.25 167.019531 306.25 166.519531 309.179688 C 166.019531 312.109375 168.019531 314.824219 170.949219 315.324219 L 277.082031 332.90625 C 277.296875 332.976562 277.511719 332.976562 277.726562 332.976562 C 280.371094 333.117188 282.800781 331.1875 283.230469 328.472656 C 283.730469 325.617188 281.730469 322.828125 278.796875 322.398438 Z M 278.796875 322.398438 " fill-opacity="1" fill-rule="nonzero"/></svg>